<svg xmlns="http://www.w3.org/2000/svg" xmlns:xlink="http://www.w3.org/1999/xlink" version="1.1" id="Layer_1" x="0px" y="0px" width="100%" viewBox="0 0 96 96" enable-background="new 0 0 96 96" xml:space="preserve">
<path fill="#000000" opacity="1.000000" stroke="none" d=" M97.000000,53.000000   C97.000000,55.370556 97.000000,57.741116 96.667023,60.223351   C94.077698,60.689259 91.821342,61.043488 89.064568,61.476276   C91.982201,63.507191 94.491096,65.253593 97.000000,67.000000   C97.000000,72.022095 97.000000,77.044182 96.753967,82.206833   C95.519104,83.223106 94.489243,84.057037 93.548042,84.981255   C87.031410,91.380165 76.604034,90.823494 71.194542,83.559982   C69.824493,81.720367 69.240929,79.295029 68.296982,77.141144   C59.314568,77.141144 50.365417,77.141144 41.442055,77.141144   C40.237225,84.040138 35.450249,90.356071 24.142519,89.053284   C20.072208,88.584312 12.939461,83.787239 13.234852,79.956894   C13.924538,71.013702 10.329168,61.487408 16.799675,53.000000   C11.253335,53.000000 6.126667,53.000000 1.000000,53.000000   C1.000000,43.979103 1.000000,34.958210 1.444023,25.468433   C4.122839,25.331539 5.147871,24.682831 5.059055,22.115067   C4.865377,16.515612 4.999198,10.904831 4.999198,5.294668   C14.610520,5.294668 23.673346,5.294668 32.858955,5.294668   C32.858955,14.538465 32.858955,23.487194 32.858955,32.711960   C31.569263,32.908657 30.371090,33.091393 29.344711,33.247929   C29.344711,37.374409 29.344711,41.105186 29.344711,45.000305   C36.173565,45.000305 42.676327,44.742241 49.132103,45.178886   C50.778534,45.290249 52.276009,47.603966 53.841919,48.905792   C52.503132,50.270237 51.266705,51.764759 49.776794,52.937138   C49.153023,53.427971 47.991508,53.235409 46.748398,53.395557   C47.677113,58.695648 48.543236,63.638523 49.422699,68.657516   C52.612709,69.922546 54.379070,68.442902 55.915428,65.598946   C59.764999,58.472992 63.939629,51.522888 67.806168,44.405704   C68.957161,42.287041 69.519127,39.848377 70.553223,36.999104   C66.538452,36.999104 63.438461,37.488216 60.614578,36.816525   C58.907665,36.410519 57.629124,34.203568 56.158108,32.805801   C57.591785,31.537487 58.857830,29.545399 60.497314,29.165678   C63.144398,28.552584 66.037300,29.000860 68.788597,29.000860   C69.280899,20.512169 73.334724,18.808889 84.799370,21.711292   C84.799370,25.361240 84.799370,28.988455 84.799370,32.748322   C82.444870,32.945267 80.271271,33.127083 77.910873,33.324524   C79.050339,36.173195 80.334679,38.487892 80.901703,40.966675   C82.730598,48.961697 85.709938,55.322369 95.762810,53.299252   C96.178452,53.215607 96.587746,53.100468 97.000000,53.000000  M24.998631,22.330647   C24.998631,19.260267 24.998631,16.189888 24.998631,13.360748   C20.556505,13.360748 16.836603,13.360748 13.365294,13.360748   C13.365294,17.448860 13.365294,21.170504 13.365294,24.999722   C15.880836,24.999722 18.061367,25.217651 20.172968,24.929852   C21.822968,24.704966 23.387421,23.852417 24.998631,22.330647  M20.230810,44.908291   C20.578087,41.087650 20.925364,37.267010 21.292679,33.225899   C16.835526,33.225899 13.116867,33.225899 9.229505,33.225899   C9.229505,37.172081 9.229505,40.890823 9.229505,44.989887   C12.723511,44.989887 16.000954,44.989887 20.230810,44.908291  M24.911524,79.959862   C25.570549,79.977226 26.230284,79.980667 26.888485,80.014214   C31.141029,80.230927 32.291237,77.773781 32.011551,74.081131   C31.720896,70.243698 29.043827,69.582550 26.064714,70.094849   C24.670704,70.334564 22.369987,71.733887 22.391813,72.556969   C22.454849,74.934242 23.488796,77.285774 24.911524,79.959862  M87.648582,72.147301   C85.434013,69.408661 82.298790,68.886154 79.945396,70.922401   C78.532516,72.144875 77.702194,75.726082 78.489044,77.319160   C79.237129,78.833755 82.508873,79.989876 84.529915,79.800232   C88.559074,79.422165 88.102982,75.891640 87.648582,72.147301  z"/>

<path xmlns="http://www.w3.org/2000/svg" fill="#C5C5C5" opacity="1.000000" stroke="none" d=" M97.000000,53.000000   C97.000000,55.370556 97.000000,57.741116 96.667023,60.223351   C94.077698,60.689259 91.821342,61.043488 89.064568,61.476276   C91.982201,63.507191 94.491096,65.253593 97.000000,67.000000   C97.000000,72.022095 97.000000,77.044182 96.753967,82.206833   C95.519104,83.223106 94.489243,84.057037 93.548042,84.981255   C87.031410,91.380165 76.604034,90.823494 71.194542,83.559982   C69.824493,81.720367 69.240929,79.295029 68.296982,77.141144   C59.314568,77.141144 50.365417,77.141144 41.442055,77.141144   C40.237225,84.040138 35.450249,90.356071 24.142519,89.053284   C20.072208,88.584312 12.939461,83.787239 13.234852,79.956894   C13.924538,71.013702 10.329168,61.487408 16.799675,53.000000   C11.253335,53.000000 6.126667,53.000000 1.000000,53.000000   C1.000000,43.979103 1.000000,34.958210 1.444023,25.468433   C4.122839,25.331539 5.147871,24.682831 5.059055,22.115067   C4.865377,16.515612 4.999198,10.904831 4.999198,5.294668   C14.610520,5.294668 23.673346,5.294668 32.858955,5.294668   C32.858955,14.538465 32.858955,23.487194 32.858955,32.711960   C31.569263,32.908657 30.371090,33.091393 29.344711,33.247929   C29.344711,37.374409 29.344711,41.105186 29.344711,45.000305   C36.173565,45.000305 42.676327,44.742241 49.132103,45.178886   C50.778534,45.290249 52.276009,47.603966 53.841919,48.905792   C52.503132,50.270237 51.266705,51.764759 49.776794,52.937138   C49.153023,53.427971 47.991508,53.235409 46.748398,53.395557   C47.677113,58.695648 48.543236,63.638523 49.422699,68.657516   C52.612709,69.922546 54.379070,68.442902 55.915428,65.598946   C59.764999,58.472992 63.939629,51.522888 67.806168,44.405704   C68.957161,42.287041 69.519127,39.848377 70.553223,36.999104   C66.538452,36.999104 63.438461,37.488216 60.614578,36.816525   C58.907665,36.410519 57.629124,34.203568 56.158108,32.805801   C57.591785,31.537487 58.857830,29.545399 60.497314,29.165678   C63.144398,28.552584 66.037300,29.000860 68.788597,29.000860   C69.280899,20.512169 73.334724,18.808889 84.799370,21.711292   C84.799370,25.361240 84.799370,28.988455 84.799370,32.748322   C82.444870,32.945267 80.271271,33.127083 77.910873,33.324524   C79.050339,36.173195 80.334679,38.487892 80.901703,40.966675   C82.730598,48.961697 85.709938,55.322369 95.762810,53.299252   C96.178452,53.215607 96.587746,53.100468 97.000000,53.000000  M24.998631,22.330647   C24.998631,19.260267 24.998631,16.189888 24.998631,13.360748   C20.556505,13.360748 16.836603,13.360748 13.365294,13.360748   C13.365294,17.448860 13.365294,21.170504 13.365294,24.999722   C15.880836,24.999722 18.061367,25.217651 20.172968,24.929852   C21.822968,24.704966 23.387421,23.852417 24.998631,22.330647  M20.230810,44.908291   C20.578087,41.087650 20.925364,37.267010 21.292679,33.225899   C16.835526,33.225899 13.116867,33.225899 9.229505,33.225899   C9.229505,37.172081 9.229505,40.890823 9.229505,44.989887   C12.723511,44.989887 16.000954,44.989887 20.230810,44.908291  M24.911524,79.959862   C25.570549,79.977226 26.230284,79.980667 26.888485,80.014214   C31.141029,80.230927 32.291237,77.773781 32.011551,74.081131   C31.720896,70.243698 29.043827,69.582550 26.064714,70.094849   C24.670704,70.334564 22.369987,71.733887 22.391813,72.556969   C22.454849,74.934242 23.488796,77.285774 24.911524,79.959862  M87.648582,72.147301   C85.434013,69.408661 82.298790,68.886154 79.945396,70.922401   C78.532516,72.144875 77.702194,75.726082 78.489044,77.319160   C79.237129,78.833755 82.508873,79.989876 84.529915,79.800232   C88.559074,79.422165 88.102982,75.891640 87.648582,72.147301  z"/>





</svg>